<svg xmlns="http://www.w3.org/2000/svg" width="16.116" height="20.573" viewBox="0 0 16.116 20.573">
  <path id="trash" d="M3.92,20.573a1.3,1.3,0,0,1-1.3-1.191L1.64,7.331a.549.549,0,0,1,.549-.591H13.928a.549.549,0,0,1,.549.591l-.982,12.05a1.3,1.3,0,0,1-1.3,1.192ZM11.114,8.738l-.587,9.893a.623.623,0,0,0,.588.657h.037a.624.624,0,0,0,.624-.584l.587-9.894a.621.621,0,0,0-.587-.656h-.037A.624.624,0,0,0,11.114,8.738ZM7.44,8.775v9.893a.625.625,0,0,0,1.25,0V8.775a.625.625,0,0,0-1.25,0Zm-3.1-.62a.623.623,0,0,0-.586.658l.615,9.893a.624.624,0,0,0,.624.583h.039a.623.623,0,0,0,.586-.659L5,8.736a.625.625,0,0,0-.624-.583ZM.517,5.5a.515.515,0,0,1-.49-.675L.437,3.6a.794.794,0,0,1,.754-.539H14.925a.794.794,0,0,1,.754.539l.41,1.222A.516.516,0,0,1,15.6,5.5ZM9.789,1.821V1.242H6.327v.579H5.077v-.66A1.166,1.166,0,0,1,6.245,0H9.871a1.165,1.165,0,0,1,1.168,1.161v.66Z" transform="translate(0)" fill="#fff"/>
</svg>
